#define has_win_nv_width 6
#define has_win_nv_height 11
static unsigned char has_win_nv_bits[] = {
   0x1e, 0x12, 0x12, 0x1e, 0x00, 0x00, 0x00, 0x00, 0x00, 0x00, 0x00 };
